<?xml version="1.0" encoding="utf-8"?>
<!-- Generator: Adobe Illustrator 24.3.0, SVG Export Plug-In . SVG Version: 6.00 Build 0)  -->
<svg version="1.1" id="Capa_1" xmlns="http://www.w3.org/2000/svg" xmlns:xlink="http://www.w3.org/1999/xlink" x="0px" y="0px"
	 viewBox="0 0 40 59.4" style="enable-background:new 0 0 40 59.4;" xml:space="preserve">
<style type="text/css">
	.st0{fill:#FFD740;}
	.st1{fill:#FFDBA9;}
	.st2{fill:#C6A744;}
	.st3{fill:#FFC473;}
</style>
<path class="st0" d="M40,20.6c0,4.6-3.2,12.3-9.4,22.7C26,51,21.4,57.4,21.4,57.5L20,59.4l-1.4-1.9c0-0.1-4.7-6.5-9.2-14.1
	C3.2,32.9,0,25.2,0,20.6C0,9.2,9,0,20,0S40,9.2,40,20.6z"/>
<path class="st1" d="M31.4,20.3C31.4,26.8,26.3,32,20,32S8.6,26.8,8.6,20.3S13.7,8.5,20,8.5S31.4,13.8,31.4,20.3z"/>
<path class="st2" d="M40,20.6c0,4.6-3.2,12.3-9.4,22.7C26,51,21.4,57.4,21.4,57.5L20,59.4V0C31,0,40,9.2,40,20.6z"/>
<path class="st3" d="M31.4,20.3C31.4,26.8,26.3,32,20,32V8.5C26.3,8.5,31.4,13.8,31.4,20.3z"/>
</svg>
